<svg version="1.1" viewBox="0.0 0.0 746.3228346456693 100.0" fill="none" stroke="none" stroke-linecap="square" stroke-miterlimit="10" xmlns:xlink="http://www.w3.org/1999/xlink" xmlns="http://www.w3.org/2000/svg"><clipPath id="p.0"><path d="m0 0l746.3228 0l0 100.0l-746.3228 0l0 -100.0z" clip-rule="nonzero"/></clipPath><g clip-path="url(#p.0)"><path fill="#000000" fill-opacity="0.0" d="m0 0l746.3228 0l0 100.0l-746.3228 0z" fill-rule="evenodd"/><path fill="#cfe2f3" d="m12.532745 12.677165l230.3937 0l0 66.39371l-230.3937 0z" fill-rule="evenodd"/><path stroke="#000000" stroke-width="1.0" stroke-linejoin="round" stroke-linecap="butt" d="m12.532745 12.677165l230.3937 0l0 66.39371l-230.3937 0z" fill-rule="evenodd"/><path fill="#000000" d="m22.376495 40.49714l1.65625 -0.140625q0.125 1.0 0.546875 1.640625q0.4375 0.640625 1.34375 1.046875q0.921875 0.390625 2.0625 0.390625q1.0 0 1.78125 -0.296875q0.78125 -0.296875 1.15625 -0.8125q0.375 -0.53125 0.375 -1.15625q0 -0.625 -0.375 -1.09375q-0.359375 -0.46875 -1.1875 -0.796875q-0.546875 -0.203125 -2.390625 -0.640625q-1.828125 -0.453125 -2.5625 -0.84375q-0.96875 -0.5 -1.4375 -1.234375q-0.46875 -0.75 -0.46875 -1.671875q0 -1.0 0.578125 -1.875q0.578125 -0.890625 1.671875 -1.34375q1.109375 -0.453125 2.453125 -0.453125q1.484375 0 2.609375 0.484375q1.140625 0.46875 1.75 1.40625q0.609375 0.921875 0.65625 2.09375l-1.6875 0.125q-0.140625 -1.265625 -0.9375 -1.90625q-0.78125 -0.65625 -2.3125 -0.65625q-1.609375 0 -2.34375 0.59375q-0.734375 0.59375 -0.734375 1.421875q0 0.71875 0.53125 1.171875q0.5 0.46875 2.65625 0.96875q2.15625 0.484375 2.953125 0.84375q1.171875 0.53125 1.71875 1.359375q0.5625 0.828125 0.5625 1.90625q0 1.0625 -0.609375 2.015625q-0.609375 0.9375 -1.75 1.46875q-1.140625 0.515625 -2.578125 0.515625q-1.8125 0 -3.046875 -0.53125q-1.21875 -0.53125 -1.921875 -1.59375q-0.6875 -1.0625 -0.71875 -2.40625zm22.568573 -0.390625l1.765625 0.453125q-0.5625 2.171875 -2.0 3.328125q-1.4375 1.140625 -3.53125 1.140625q-2.15625 0 -3.515625 -0.875q-1.34375 -0.890625 -2.0625 -2.546875q-0.703125 -1.671875 -0.703125 -3.59375q0 -2.078125 0.796875 -3.625q0.796875 -1.5625 2.265625 -2.359375q1.484375 -0.8125 3.25 -0.8125q2.0 0 3.359375 1.015625q1.375 1.015625 1.90625 2.875l-1.734375 0.40625q-0.46875 -1.453125 -1.359375 -2.109375q-0.875 -0.671875 -2.203125 -0.671875q-1.546875 0 -2.578125 0.734375q-1.03125 0.734375 -1.453125 1.984375q-0.421875 1.234375 -0.421875 2.5625q0 1.703125 0.5 2.96875q0.5 1.265625 1.546875 1.90625q1.046875 0.625 2.265625 0.625q1.484375 0 2.515625 -0.859375q1.03125 -0.859375 1.390625 -2.546875zm4.238571 4.6875l0 -13.359375l1.765625 0l0 13.359375l-1.765625 0zm4.839554 0l0 -13.359375l2.65625 0l3.15625 9.453125q0.4375 1.328125 0.640625 1.984375q0.234375 -0.734375 0.703125 -2.140625l3.203125 -9.296875l2.375 0l0 13.359375l-1.703125 0l0 -11.171875l-3.875 11.171875l-1.59375 0l-3.859375 -11.375l0 11.375l-1.703125 0zm14.743927 -4.015625l0 -1.640625l5.03125 0l0 1.640625l-5.03125 0zm7.087677 4.015625l0 -13.359375l9.65625 0l0 1.578125l-7.875 0l0 4.09375l7.375 0l0 1.5625l-7.375 0l0 4.546875l8.1875 0l0 1.578125l-9.96875 0zm14.896698 0l-3.6875 -9.671875l1.734375 0l2.078125 5.796875q0.328125 0.9375 0.625 1.9375q0.203125 -0.765625 0.609375 -1.828125l2.140625 -5.90625l1.6875 0l-3.65625 9.671875l-1.53125 0zm6.640625 -11.46875l0 -1.890625l1.640625 0l0 1.890625l-1.640625 0zm0 11.46875l0 -9.671875l1.640625 0l0 9.671875l-1.640625 0zm10.410446 0l0 -1.21875q-0.90625 1.4375 -2.703125 1.4375q-1.15625 0 -2.125 -0.640625q-0.96875 -0.640625 -1.5 -1.78125q-0.53125 -1.140625 -0.53125 -2.625q0 -1.453125 0.484375 -2.625q0.484375 -1.1875 1.4375 -1.8125q0.96875 -0.625 2.171875 -0.625q0.875 0 1.546875 0.375q0.6875 0.359375 1.109375 0.953125l0 -4.796875l1.640625 0l0 13.359375l-1.53125 0zm-5.171875 -4.828125q0 1.859375 0.78125 2.78125q0.78125 0.921875 1.84375 0.921875q1.078125 0 1.828125 -0.875q0.75 -0.890625 0.75 -2.6875q0 -1.984375 -0.765625 -2.90625q-0.765625 -0.9375 -1.890625 -0.9375q-1.078125 0 -1.8125 0.890625q-0.734375 0.890625 -0.734375 2.8125zm15.906967 1.71875l1.6875 0.203125q-0.40625 1.484375 -1.484375 2.3125q-1.078125 0.8125 -2.765625 0.8125q-2.125 0 -3.375 -1.296875q-1.234375 -1.3125 -1.234375 -3.671875q0 -2.453125 1.25 -3.796875q1.265625 -1.34375 3.265625 -1.34375q1.9375 0 3.15625 1.328125q1.234375 1.3125 1.234375 3.703125q0 0.15625 0 0.4375l-7.21875 0q0.09375 1.59375 0.90625 2.453125q0.8125 0.84375 2.015625 0.84375q0.90625 0 1.546875 -0.46875q0.640625 -0.484375 1.015625 -1.515625zm-5.390625 -2.65625l5.40625 0q-0.109375 -1.21875 -0.625 -1.828125q-0.78125 -0.953125 -2.03125 -0.953125q-1.125 0 -1.90625 0.765625q-0.765625 0.75 -0.84375 2.015625zm9.141342 5.765625l0 -9.671875l1.46875 0l0 1.375q1.0625 -1.59375 3.078125 -1.59375q0.875 0 1.609375 0.3125q0.734375 0.3125 1.09375 0.828125q0.375 0.5 0.515625 1.203125q0.09375 0.453125 0.09375 1.59375l0 5.953125l-1.640625 0l0 -5.890625q0 -1.0 -0.203125 -1.484375q-0.1875 -0.5 -0.671875 -0.796875q-0.484375 -0.296875 -1.140625 -0.296875q-1.046875 0 -1.8125 0.671875q-0.75 0.65625 -0.75 2.515625l0 5.28125l-1.640625 0zm16.688217 -3.546875l1.609375 0.21875q-0.265625 1.65625 -1.359375 2.609375q-1.078125 0.9375 -2.671875 0.9375q-1.984375 0 -3.1875 -1.296875q-1.203125 -1.296875 -1.203125 -3.71875q0 -1.578125 0.515625 -2.75q0.515625 -1.171875 1.578125 -1.75q1.0625 -0.59375 2.3125 -0.59375q1.578125 0 2.578125 0.796875q1.0 0.796875 1.28125 2.265625l-1.59375 0.234375q-0.234375 -0.96875 -0.8125 -1.453125q-0.578125 -0.5 -1.390625 -0.5q-1.234375 0 -2.015625 0.890625q-0.78125 0.890625 -0.78125 2.8125q0 1.953125 0.75 2.84375q0.75 0.875 1.953125 0.875q0.96875 0 1.609375 -0.59375q0.65625 -0.59375 0.828125 -1.828125zm9.640625 0.4375l1.6875 0.203125q-0.40625 1.484375 -1.484375 2.3125q-1.078125 0.8125 -2.765625 0.8125q-2.125 0 -3.375 -1.296875q-1.234375 -1.3125 -1.234375 -3.671875q0 -2.453125 1.25 -3.796875q1.265625 -1.34375 3.265625 -1.34375q1.9375 0 3.15625 1.328125q1.234375 1.3125 1.234375 3.703125q0 0.15625 0 0.4375l-7.21875 0q0.09375 1.59375 0.90625 2.453125q0.8125 0.84375 2.015625 0.84375q0.90625 0 1.546875 -0.46875q0.640625 -0.484375 1.015625 -1.515625zm-5.390625 -2.65625l5.40625 0q-0.109375 -1.21875 -0.625 -1.828125q-0.78125 -0.953125 -2.03125 -0.953125q-1.125 0 -1.90625 0.765625q-0.765625 0.75 -0.84375 2.015625z" fill-rule="nonzero"/><path fill="#000000" d="m22.126495 61.674015l1.984375 -9.546875l2.875 0q1.046875 0 1.59375 0.15625q0.78125 0.203125 1.328125 0.71875q0.546875 0.515625 0.828125 1.296875q0.28125 0.765625 0.28125 1.734375q0 1.15625 -0.34375 2.109375q-0.34375 0.9375 -0.90625 1.65625q-0.5625 0.71875 -1.1875 1.125q-0.609375 0.40625 -1.453125 0.59375q-0.640625 0.15625 -1.5625 0.15625l-3.4375 0zm1.5 -1.078125l1.515625 0q1.015625 0 1.8125 -0.1875q0.5 -0.125 0.84375 -0.34375q0.46875 -0.296875 0.84375 -0.78125q0.484375 -0.640625 0.78125 -1.453125q0.296875 -0.8125 0.296875 -1.859375q0 -1.15625 -0.40625 -1.78125q-0.390625 -0.625 -1.015625 -0.8125q-0.46875 -0.15625 -1.4375 -0.15625l-1.6875 0l-1.546875 7.375zm12.640778 0.21875q-0.625 0.53125 -1.1875 0.78125q-0.5625 0.234375 -1.203125 0.234375q-0.96875 0 -1.5625 -0.5625q-0.578125 -0.5625 -0.578125 -1.4375q0 -0.578125 0.265625 -1.015625q0.265625 -0.453125 0.703125 -0.71875q0.4375 -0.28125 1.0625 -0.390625q0.40625 -0.078125 1.515625 -0.125q1.109375 -0.046875 1.59375 -0.234375q0.125 -0.484375 0.125 -0.8125q0 -0.40625 -0.296875 -0.640625q-0.40625 -0.328125 -1.1875 -0.328125q-0.75 0 -1.21875 0.328125q-0.46875 0.328125 -0.6875 0.9375l-1.1875 -0.109375q0.359375 -1.015625 1.140625 -1.5625q0.796875 -0.546875 2.0 -0.546875q1.28125 0 2.03125 0.609375q0.578125 0.453125 0.578125 1.1875q0 0.546875 -0.15625 1.28125l-0.390625 1.71875q-0.1875 0.8125 -0.1875 1.328125q0 0.328125 0.15625 0.9375l-1.203125 0q-0.09375 -0.34375 -0.125 -0.859375zm0.421875 -2.640625q-0.234375 0.09375 -0.53125 0.15625q-0.28125 0.046875 -0.9375 0.109375q-1.03125 0.078125 -1.453125 0.21875q-0.421875 0.140625 -0.640625 0.453125q-0.21875 0.296875 -0.21875 0.671875q0 0.5 0.34375 0.828125q0.34375 0.3125 0.984375 0.3125q0.578125 0 1.109375 -0.3125q0.546875 -0.3125 0.859375 -0.859375q0.3125 -0.5625 0.484375 -1.578125zm5.0843506 2.546875l-0.203125 0.953125q-0.421875 0.109375 -0.8125 0.109375q-0.703125 0 -1.125 -0.34375q-0.3125 -0.25 -0.3125 -0.703125q0 -0.234375 0.171875 -1.046875l0.828125 -4.015625l-0.921875 0l0.1875 -0.90625l0.9375 0l0.34375 -1.703125l1.359375 -0.8125l-0.53125 2.515625l1.15625 0l-0.1875 0.90625l-1.15625 0l-0.796875 3.8125q-0.15625 0.734375 -0.15625 0.875q0 0.21875 0.109375 0.328125q0.125 0.109375 0.40625 0.109375q0.390625 0 0.703125 -0.078125zm5.6092377 0.09375q-0.625 0.53125 -1.1875 0.78125q-0.5625 0.234375 -1.203125 0.234375q-0.96875 0 -1.5625 -0.5625q-0.578125 -0.5625 -0.578125 -1.4375q0 -0.578125 0.265625 -1.015625q0.265625 -0.453125 0.703125 -0.71875q0.4375 -0.28125 1.0625 -0.390625q0.40625 -0.078125 1.515625 -0.125q1.109375 -0.046875 1.59375 -0.234375q0.125 -0.484375 0.125 -0.8125q0 -0.40625 -0.296875 -0.640625q-0.40625 -0.328125 -1.1875 -0.328125q-0.75 0 -1.21875 0.328125q-0.46875 0.328125 -0.6875 0.9375l-1.1875 -0.109375q0.359375 -1.015625 1.140625 -1.5625q0.796875 -0.546875 2.0 -0.546875q1.28125 0 2.03125 0.609375q0.578125 0.453125 0.578125 1.1875q0 0.546875 -0.15625 1.28125l-0.390625 1.71875q-0.1875 0.8125 -0.1875 1.328125q0 0.328125 0.15625 0.9375l-1.203125 0q-0.09375 -0.34375 -0.125 -0.859375zm0.421875 -2.640625q-0.234375 0.09375 -0.53125 0.15625q-0.28125 0.046875 -0.9375 0.109375q-1.03125 0.078125 -1.453125 0.21875q-0.421875 0.140625 -0.640625 0.453125q-0.21875 0.296875 -0.21875 0.671875q0 0.5 0.34375 0.828125q0.34375 0.3125 0.984375 0.3125q0.578125 0 1.109375 -0.3125q0.546875 -0.3125 0.859375 -0.859375q0.3125 -0.5625 0.484375 -1.578125zm6.1623383 3.5l2.0 -9.546875l1.5625 0l0.96875 6.1875q0.1875 1.21875 0.25 2.34375q0.390625 -0.96875 1.328125 -2.609375l3.34375 -5.921875l1.59375 0l-2.0 9.546875l-1.25 0l1.0 -4.640625q0.34375 -1.609375 0.984375 -3.609375q-0.40625 0.9375 -1.015625 2.015625l-3.546875 6.234375l-1.234375 0l-0.953125 -6.125q-0.140625 -0.828125 -0.1875 -1.953125q-0.171875 1.265625 -0.328125 2.0l-1.265625 6.078125l-1.25 0zm11.180557 -2.625q0 -2.015625 1.1875 -3.34375q0.984375 -1.09375 2.578125 -1.09375q1.25 0 2.015625 0.78125q0.765625 0.78125 0.765625 2.109375q0 1.1875 -0.484375 2.21875q-0.484375 1.015625 -1.375 1.5625q-0.890625 0.546875 -1.875 0.546875q-0.796875 0 -1.46875 -0.34375q-0.65625 -0.34375 -1.0 -0.96875q-0.34375 -0.640625 -0.34375 -1.46875zm1.171875 -0.109375q0 0.96875 0.46875 1.484375q0.46875 0.5 1.1875 0.5q0.375 0 0.75 -0.15625q0.375 -0.15625 0.6875 -0.46875q0.328125 -0.3125 0.546875 -0.703125q0.21875 -0.40625 0.359375 -0.875q0.203125 -0.640625 0.203125 -1.234375q0 -0.9375 -0.46875 -1.453125q-0.46875 -0.515625 -1.1875 -0.515625q-0.5625 0 -1.015625 0.265625q-0.453125 0.265625 -0.828125 0.78125q-0.359375 0.5 -0.53125 1.171875q-0.171875 0.671875 -0.171875 1.203125zm10.693726 1.734375q-1.015625 1.15625 -2.109375 1.15625q-0.984375 0 -1.640625 -0.71875q-0.65625 -0.734375 -0.65625 -2.109375q0 -1.265625 0.515625 -2.3125q0.515625 -1.046875 1.296875 -1.5625q0.78125 -0.515625 1.5625 -0.515625q1.28125 0 1.9375 1.234375l0.78125 -3.71875l1.171875 0l-1.984375 9.546875l-1.09375 0l0.21875 -1.0zm-3.234375 -1.890625q0 0.71875 0.140625 1.140625q0.140625 0.40625 0.484375 0.6875q0.34375 0.28125 0.828125 0.28125q0.796875 0 1.453125 -0.84375q0.875 -1.109375 0.875 -2.734375q0 -0.8125 -0.4375 -1.265625q-0.421875 -0.46875 -1.078125 -0.46875q-0.421875 0 -0.765625 0.1875q-0.34375 0.1875 -0.6875 0.640625q-0.34375 0.453125 -0.578125 1.15625q-0.234375 0.6875 -0.234375 1.21875zm11.053101 0.546875l1.15625 0.109375q-0.25 0.859375 -1.140625 1.625q-0.890625 0.765625 -2.125 0.765625q-0.765625 0 -1.40625 -0.34375q-0.640625 -0.359375 -0.984375 -1.03125q-0.328125 -0.6875 -0.328125 -1.546875q0 -1.140625 0.515625 -2.203125q0.53125 -1.0625 1.359375 -1.578125q0.84375 -0.515625 1.8125 -0.515625q1.234375 0 1.96875 0.765625q0.75 0.765625 0.75 2.09375q0 0.5 -0.09375 1.046875l-5.09375 0q-0.03125 0.1875 -0.03125 0.359375q0 0.96875 0.4375 1.484375q0.453125 0.5 1.109375 0.5q0.59375 0 1.171875 -0.390625q0.59375 -0.390625 0.921875 -1.140625zm-3.421875 -1.71875l3.875 0q0.015625 -0.1875 0.015625 -0.265625q0 -0.875 -0.453125 -1.34375q-0.4375 -0.484375 -1.125 -0.484375q-0.765625 0 -1.390625 0.53125q-0.609375 0.515625 -0.921875 1.5625zm5.6624756 4.0625l2.0 -9.546875l1.171875 0l-1.984375 9.546875l-1.1875 0zm11.429703 -0.859375q-0.625 0.53125 -1.1875 0.78125q-0.5625 0.234375 -1.203125 0.234375q-0.96875 0 -1.5625 -0.5625q-0.578125 -0.5625 -0.578125 -1.4375q0 -0.578125 0.265625 -1.015625q0.265625 -0.453125 0.703125 -0.71875q0.4375 -0.28125 1.0625 -0.390625q0.40625 -0.078125 1.515625 -0.125q1.109375 -0.046875 1.59375 -0.234375q0.125 -0.484375 0.125 -0.8125q0 -0.40625 -0.296875 -0.640625q-0.40625 -0.328125 -1.1875 -0.328125q-0.75 0 -1.21875 0.328125q-0.46875 0.328125 -0.6875 0.9375l-1.1875 -0.109375q0.359375 -1.015625 1.140625 -1.5625q0.796875 -0.546875 2.0 -0.546875q1.28125 0 2.03125 0.609375q0.578125 0.453125 0.578125 1.1875q0 0.546875 -0.15625 1.28125l-0.390625 1.71875q-0.1875 0.8125 -0.1875 1.328125q0 0.328125 0.15625 0.9375l-1.203125 0q-0.09375 -0.34375 -0.125 -0.859375zm0.421875 -2.640625q-0.234375 0.09375 -0.53125 0.15625q-0.28125 0.046875 -0.9375 0.109375q-1.03125 0.078125 -1.453125 0.21875q-0.421875 0.140625 -0.640625 0.453125q-0.21875 0.296875 -0.21875 0.671875q0 0.5 0.34375 0.828125q0.34375 0.3125 0.984375 0.3125q0.578125 0 1.109375 -0.3125q0.546875 -0.3125 0.859375 -0.859375q0.3125 -0.5625 0.484375 -1.578125zm2.3187256 3.5l1.453125 -6.90625l1.0625 0l-0.25 1.203125q0.6875 -0.71875 1.296875 -1.03125q0.609375 -0.328125 1.234375 -0.328125q0.84375 0 1.3125 0.453125q0.484375 0.453125 0.484375 1.21875q0 0.375 -0.171875 1.203125l-0.875 4.1875l-1.171875 0l0.921875 -4.375q0.125 -0.640625 0.125 -0.953125q0 -0.34375 -0.234375 -0.546875q-0.234375 -0.21875 -0.6875 -0.21875q-0.90625 0 -1.609375 0.65625q-0.703125 0.640625 -1.03125 2.21875l-0.671875 3.21875l-1.1875 0zm12.084351 -1.0q-1.015625 1.15625 -2.109375 1.15625q-0.984375 0 -1.640625 -0.71875q-0.65625 -0.734375 -0.65625 -2.109375q0 -1.265625 0.515625 -2.3125q0.515625 -1.046875 1.296875 -1.5625q0.78125 -0.515625 1.5625 -0.515625q1.28125 0 1.9375 1.234375l0.78125 -3.71875l1.171875 0l-1.984375 9.546875l-1.09375 0l0.21875 -1.0zm-3.234375 -1.890625q0 0.71875 0.140625 1.140625q0.140625 0.40625 0.484375 0.6875q0.34375 0.28125 0.828125 0.28125q0.796875 0 1.453125 -0.84375q0.875 -1.109375 0.875 -2.734375q0 -0.8125 -0.4375 -1.265625q-0.421875 -0.46875 -1.078125 -0.46875q-0.421875 0 -0.765625 0.1875q-0.34375 0.1875 -0.6875 0.640625q-0.34375 0.453125 -0.578125 1.15625q-0.234375 0.6875 -0.234375 1.21875zm9.834213 2.890625l2.0 -9.546875l6.890625 0l-0.234375 1.09375l-5.609375 0l-0.625 2.96875l5.46875 0l-0.21875 1.078125l-5.46875 0l-0.6875 3.328125l6.0 0l-0.234375 1.078125l-7.28125 0zm8.28038 0l3.0 -3.5l-1.71875 -3.40625l1.296875 0l0.59375 1.21875q0.3125 0.703125 0.578125 1.328125l2.0 -2.546875l1.4375 0l-2.90625 3.484375l1.734375 3.421875l-1.296875 0l-0.6875 -1.40625q-0.21875 -0.453125 -0.5 -1.109375l-2.0625 2.515625l-1.46875 0zm11.8984375 -2.515625l1.171875 0.125q-0.4375 1.296875 -1.265625 1.921875q-0.8125 0.625 -1.84375 0.625q-1.140625 0 -1.84375 -0.71875q-0.6875 -0.734375 -0.6875 -2.046875q0 -1.125 0.4375 -2.21875q0.453125 -1.09375 1.28125 -1.65625q0.84375 -0.578125 1.921875 -0.578125q1.109375 0 1.765625 0.625q0.65625 0.625 0.65625 1.65625l-1.15625 0.078125q-0.015625 -0.65625 -0.390625 -1.015625q-0.375 -0.375 -0.984375 -0.375q-0.703125 0 -1.234375 0.453125q-0.515625 0.4375 -0.8125 1.359375q-0.296875 0.90625 -0.296875 1.75q0 0.890625 0.390625 1.34375q0.390625 0.4375 0.96875 0.4375q0.5625 0 1.078125 -0.4375q0.53125 -0.4375 0.84375 -1.328125zm1.8828125 2.515625l2.0 -9.546875l1.171875 0l-0.765625 3.671875q0.65625 -0.640625 1.21875 -0.90625q0.578125 -0.28125 1.171875 -0.28125q0.859375 0 1.328125 0.453125q0.484375 0.453125 0.484375 1.1875q0 0.359375 -0.203125 1.34375l-0.859375 4.078125l-1.171875 0l0.875 -4.1875q0.1875 -0.90625 0.1875 -1.140625q0 -0.34375 -0.234375 -0.546875q-0.234375 -0.21875 -0.671875 -0.21875q-0.640625 0 -1.21875 0.34375q-0.578125 0.328125 -0.90625 0.90625q-0.328125 0.578125 -0.609375 1.875l-0.609375 2.96875l-1.1875 0zm12.084351 -0.859375q-0.625 0.53125 -1.1875 0.78125q-0.5625 0.234375 -1.203125 0.234375q-0.96875 0 -1.5625 -0.5625q-0.578125 -0.5625 -0.578125 -1.4375q0 -0.578125 0.265625 -1.015625q0.265625 -0.453125 0.703125 -0.71875q0.4375 -0.28125 1.0625 -0.390625q0.40625 -0.078125 1.515625 -0.125q1.109375 -0.046875 1.59375 -0.234375q0.125 -0.484375 0.125 -0.8125q0 -0.40625 -0.296875 -0.640625q-0.40625 -0.328125 -1.1875 -0.328125q-0.75 0 -1.21875 0.328125q-0.46875 0.328125 -0.6875 0.9375l-1.1875 -0.109375q0.359375 -1.015625 1.140625 -1.5625q0.796875 -0.546875 2.0 -0.546875q1.28125 0 2.03125 0.609375q0.578125 0.453125 0.578125 1.1875q0 0.546875 -0.15625 1.28125l-0.390625 1.71875q-0.1875 0.8125 -0.1875 1.328125q0 0.328125 0.15625 0.9375l-1.203125 0q-0.09375 -0.34375 -0.125 -0.859375zm0.421875 -2.640625q-0.234375 0.09375 -0.53125 0.15625q-0.28125 0.046875 -0.9375 0.109375q-1.03125 0.078125 -1.453125 0.21875q-0.421875 0.140625 -0.640625 0.453125q-0.21875 0.296875 -0.21875 0.671875q0 0.5 0.34375 0.828125q0.34375 0.3125 0.984375 0.3125q0.578125 0 1.109375 -0.3125q0.546875 -0.3125 0.859375 -0.859375q0.3125 -0.5625 0.484375 -1.578125zm2.3187256 3.5l1.453125 -6.90625l1.0625 0l-0.25 1.203125q0.6875 -0.71875 1.296875 -1.03125q0.609375 -0.328125 1.234375 -0.328125q0.84375 0 1.3125 0.453125q0.484375 0.453125 0.484375 1.21875q0 0.375 -0.171875 1.203125l-0.875 4.1875l-1.171875 0l0.921875 -4.375q0.125 -0.640625 0.125 -0.953125q0 -0.34375 -0.234375 -0.546875q-0.234375 -0.21875 -0.6875 -0.21875q-0.90625 0 -1.609375 0.65625q-0.703125 0.640625 -1.03125 2.21875l-0.671875 3.21875l-1.1875 0zm7.3499756 0.625l1.1875 0.109375q0 0.40625 0.109375 0.609375q0.109375 0.203125 0.34375 0.3125q0.328125 0.140625 0.828125 0.140625q1.0625 0 1.53125 -0.546875q0.3125 -0.375 0.578125 -1.625l0.109375 -0.5625q-0.921875 0.9375 -1.953125 0.9375q-1.046875 0 -1.75 -0.765625q-0.703125 -0.78125 -0.703125 -2.1875q0 -1.171875 0.546875 -2.140625q0.5625 -0.984375 1.328125 -1.46875q0.765625 -0.5 1.578125 -0.5q1.359375 0 2.09375 1.28125l0.234375 -1.125l1.078125 0l-1.390625 6.671875q-0.21875 1.09375 -0.59375 1.703125q-0.375 0.625 -1.03125 0.9531212q-0.65625 0.34375 -1.53125 0.34375q-0.828125 0 -1.4375 -0.21875q-0.59375 -0.203125 -0.890625 -0.6249962q-0.296875 -0.40625 -0.296875 -0.953125q0 -0.15625 0.03125 -0.34375zm1.46875 -3.6875q0 0.71875 0.140625 1.078125q0.203125 0.5 0.5625 0.765625q0.359375 0.25 0.796875 0.25q0.578125 0 1.140625 -0.40625q0.578125 -0.40625 0.9375 -1.25q0.359375 -0.859375 0.359375 -1.625q0 -0.859375 -0.484375 -1.359375q-0.46875 -0.515625 -1.15625 -0.515625q-0.4375 0 -0.84375 0.234375q-0.390625 0.234375 -0.75 0.703125q-0.34375 0.46875 -0.53125 1.140625q-0.171875 0.65625 -0.171875 0.984375zm11.084351 0.71875l1.15625 0.109375q-0.25 0.859375 -1.140625 1.625q-0.890625 0.765625 -2.125 0.765625q-0.765625 0 -1.40625 -0.34375q-0.640625 -0.359375 -0.984375 -1.03125q-0.328125 -0.6875 -0.328125 -1.546875q0 -1.140625 0.515625 -2.203125q0.53125 -1.0625 1.359375 -1.578125q0.84375 -0.515625 1.8125 -0.515625q1.234375 0 1.96875 0.765625q0.75 0.765625 0.75 2.09375q0 0.5 -0.09375 1.046875l-5.09375 0q-0.03125 0.1875 -0.03125 0.359375q0 0.96875 0.4375 1.484375q0.453125 0.5 1.109375 0.5q0.59375 0 1.171875 -0.390625q0.59375 -0.390625 0.921875 -1.140625zm-3.421875 -1.71875l3.875 0q0.015625 -0.1875 0.015625 -0.265625q0 -0.875 -0.453125 -1.34375q-0.4375 -0.484375 -1.125 -0.484375q-0.765625 0 -1.390625 0.53125q-0.609375 0.515625 -0.921875 1.5625zm9.631088 4.0625l1.984375 -9.546875l6.203125 0l-0.21875 1.09375l-4.9375 0l-0.625 3.03125l5.015625 0l-0.234375 1.09375l-5.015625 0l-0.90625 4.328125l-1.265625 0zm8.188232 -2.625q0 -2.015625 1.1875 -3.34375q0.984375 -1.09375 2.578125 -1.09375q1.25 0 2.015625 0.78125q0.765625 0.78125 0.765625 2.109375q0 1.1875 -0.484375 2.21875q-0.484375 1.015625 -1.375 1.5625q-0.890625 0.546875 -1.875 0.546875q-0.796875 0 -1.46875 -0.34375q-0.65625 -0.34375 -1.0 -0.96875q-0.34375 -0.640625 -0.34375 -1.46875zm1.171875 -0.109375q0 0.96875 0.46875 1.484375q0.46875 0.5 1.1875 0.5q0.375 0 0.75 -0.15625q0.375 -0.15625 0.6875 -0.46875q0.328125 -0.3125 0.546875 -0.703125q0.21875 -0.40625 0.359375 -0.875q0.203125 -0.640625 0.203125 -1.234375q0 -0.9375 -0.46875 -1.453125q-0.46875 -0.515625 -1.1875 -0.515625q-0.5625 0 -1.015625 0.265625q-0.453125 0.265625 -0.828125 0.78125q-0.359375 0.5 -0.53125 1.171875q-0.171875 0.671875 -0.171875 1.203125zm6.0218506 2.734375l1.453125 -6.90625l1.03125 0l-0.28125 1.40625q0.53125 -0.796875 1.03125 -1.171875q0.515625 -0.390625 1.046875 -0.390625q0.359375 0 0.875 0.25l-0.484375 1.09375q-0.3125 -0.21875 -0.671875 -0.21875q-0.625 0 -1.28125 0.6875q-0.640625 0.6875 -1.015625 2.484375l-0.578125 2.765625l-1.125 0zm4.4383698 0l1.4375 -6.90625l1.1875 0l-0.25 1.140625q0.65625 -0.75 1.171875 -1.015625q0.53125 -0.28125 1.125 -0.28125q0.65625 0 1.078125 0.34375q0.4375 0.328125 0.578125 0.953125q0.515625 -0.65625 1.09375 -0.96875q0.59375 -0.328125 1.234375 -0.328125q0.875 0 1.296875 0.40625q0.4375 0.40625 0.4375 1.15625q0 0.3125 -0.15625 1.046875l-0.921875 4.453125l-1.171875 0l0.9375 -4.5625q0.125 -0.5625 0.125 -0.8125q0 -0.328125 -0.21875 -0.515625q-0.203125 -0.203125 -0.59375 -0.203125q-0.53125 0 -1.078125 0.328125q-0.546875 0.3125 -0.859375 0.828125q-0.296875 0.515625 -0.515625 1.59375l-0.703125 3.34375l-1.1875 0l0.984375 -4.671875q0.109375 -0.46875 0.109375 -0.671875q0 -0.34375 -0.21875 -0.546875q-0.21875 -0.203125 -0.546875 -0.203125q-0.5 0 -1.0625 0.328125q-0.546875 0.3125 -0.890625 0.875q-0.34375 0.5625 -0.5625 1.625l-0.6875 3.265625l-1.171875 0zm15.774307 -0.859375q-0.625 0.53125 -1.1875 0.78125q-0.5625 0.234375 -1.203125 0.234375q-0.96875 0 -1.5625 -0.5625q-0.578125 -0.5625 -0.578125 -1.4375q0 -0.578125 0.265625 -1.015625q0.265625 -0.453125 0.703125 -0.71875q0.4375 -0.28125 1.0625 -0.390625q0.40625 -0.078125 1.515625 -0.125q1.109375 -0.046875 1.59375 -0.234375q0.125 -0.484375 0.125 -0.8125q0 -0.40625 -0.296875 -0.640625q-0.40625 -0.328125 -1.1875 -0.328125q-0.75 0 -1.21875 0.328125q-0.46875 0.328125 -0.6875 0.9375l-1.1875 -0.109375q0.359375 -1.015625 1.140625 -1.5625q0.796875 -0.546875 2.0 -0.546875q1.28125 0 2.03125 0.609375q0.578125 0.453125 0.578125 1.1875q0 0.546875 -0.15625 1.28125l-0.390625 1.71875q-0.1875 0.8125 -0.1875 1.328125q0 0.328125 0.15625 0.9375l-1.203125 0q-0.09375 -0.34375 -0.125 -0.859375zm0.421875 -2.640625q-0.234375 0.09375 -0.53125 0.15625q-0.28125 0.046875 -0.9375 0.109375q-1.03125 0.078125 -1.453125 0.21875q-0.421875 0.140625 -0.640625 0.453125q-0.21875 0.296875 -0.21875 0.671875q0 0.5 0.34375 0.828125q0.34375 0.3125 0.984375 0.3125q0.578125 0 1.109375 -0.3125q0.546875 -0.3125 0.859375 -0.859375q0.3125 -0.5625 0.484375 -1.578125zm5.0843506 2.546875l-0.203125 0.953125q-0.421875 0.109375 -0.8125 0.109375q-0.703125 0 -1.125 -0.34375q-0.3125 -0.25 -0.3125 -0.703125q0 -0.234375 0.171875 -1.046875l0.828125 -4.015625l-0.921875 0l0.1875 -0.90625l0.9375 0l0.34375 -1.703125l1.359375 -0.8125l-0.53125 2.515625l1.15625 0l-0.1875 0.90625l-1.15625 0l-0.796875 3.8125q-0.15625 0.734375 -0.15625 0.875q0 0.21875 0.109375 0.328125q0.125 0.109375 0.40625 0.109375q0.390625 0 0.703125 -0.078125z" fill-rule="nonzero"/><path fill="#cfe2f3" d="m260.749 12.677165l230.3937 0l0 66.39371l-230.3937 0z" fill-rule="evenodd"/><path stroke="#000000" stroke-width="1.0" stroke-linejoin="round" stroke-linecap="butt" d="m260.749 12.677165l230.3937 0l0 66.39371l-230.3937 0z" fill-rule="evenodd"/><path fill="#000000" d="m270.59274 40.49714l1.65625 -0.140625q0.125 1.0 0.546875 1.640625q0.4375 0.640625 1.34375 1.046875q0.921875 0.390625 2.0625 0.390625q1.0 0 1.78125 -0.296875q0.78125 -0.296875 1.15625 -0.8125q0.375 -0.53125 0.375 -1.15625q0 -0.625 -0.375 -1.09375q-0.359375 -0.46875 -1.1875 -0.796875q-0.546875 -0.203125 -2.390625 -0.640625q-1.828125 -0.453125 -2.5625 -0.84375q-0.96875 -0.5 -1.4375 -1.234375q-0.46875 -0.75 -0.46875 -1.671875q0 -1.0 0.578125 -1.875q0.578125 -0.890625 1.671875 -1.34375q1.109375 -0.453125 2.453125 -0.453125q1.484375 0 2.609375 0.484375q1.140625 0.46875 1.75 1.40625q0.609375 0.921875 0.65625 2.09375l-1.6875 0.125q-0.140625 -1.265625 -0.9375 -1.90625q-0.78125 -0.65625 -2.3125 -0.65625q-1.609375 0 -2.34375 0.59375q-0.734375 0.59375 -0.734375 1.421875q0 0.71875 0.53125 1.171875q0.5 0.46875 2.65625 0.96875q2.15625 0.484375 2.953125 0.84375q1.171875 0.53125 1.71875 1.359375q0.5625 0.828125 0.5625 1.90625q0 1.0625 -0.609375 2.015625q-0.609375 0.9375 -1.75 1.46875q-1.140625 0.515625 -2.578125 0.515625q-1.8125 0 -3.046875 -0.53125q-1.21875 -0.53125 -1.921875 -1.59375q-0.6875 -1.0625 -0.71875 -2.40625zm22.568573 -0.390625l1.765625 0.453125q-0.5625 2.171875 -2.0 3.328125q-1.4375 1.140625 -3.53125 1.140625q-2.15625 0 -3.515625 -0.875q-1.34375 -0.890625 -2.0625 -2.546875q-0.703125 -1.671875 -0.703125 -3.59375q0 -2.078125 0.796875 -3.625q0.796875 -1.5625 2.265625 -2.359375q1.484375 -0.8125 3.25 -0.8125q2.0 0 3.359375 1.015625q1.375 1.015625 1.90625 2.875l-1.734375 0.40625q-0.46875 -1.453125 -1.359375 -2.109375q-0.875 -0.671875 -2.203125 -0.671875q-1.546875 0 -2.578125 0.734375q-1.03125 0.734375 -1.453125 1.984375q-0.421875 1.234375 -0.421875 2.5625q0 1.703125 0.5 2.96875q0.5 1.265625 1.546875 1.90625q1.046875 0.625 2.265625 0.625q1.484375 0 2.515625 -0.859375q1.03125 -0.859375 1.390625 -2.546875zm4.238556 4.6875l0 -13.359375l1.765625 0l0 13.359375l-1.765625 0zm4.839569 0l0 -13.359375l2.65625 0l3.15625 9.453125q0.4375 1.328125 0.640625 1.984375q0.234375 -0.734375 0.703125 -2.140625l3.203125 -9.296875l2.375 0l0 13.359375l-1.703125 0l0 -11.171875l-3.875 11.171875l-1.59375 0l-3.859375 -11.375l0 11.375l-1.703125 0zm14.743927 -4.015625l0 -1.640625l5.03125 0l0 1.640625l-5.03125 0zm7.056427 4.015625l0 -13.359375l5.046875 0q1.328125 0 2.03125 0.125q0.96875 0.171875 1.640625 0.640625q0.671875 0.453125 1.078125 1.28125q0.40625 0.828125 0.40625 1.828125q0 1.703125 -1.09375 2.890625q-1.078125 1.171875 -3.921875 1.171875l-3.421875 0l0 5.421875l-1.765625 0zm1.765625 -7.0l3.453125 0q1.71875 0 2.4375 -0.640625q0.71875 -0.640625 0.71875 -1.796875q0 -0.84375 -0.421875 -1.4375q-0.421875 -0.59375 -1.125 -0.78125q-0.4375 -0.125 -1.640625 -0.125l-3.421875 0l0 4.78125zm9.865448 2.15625q0 -2.6875 1.484375 -3.96875q1.25 -1.078125 3.046875 -1.078125q2.0 0 3.265625 1.3125q1.265625 1.296875 1.265625 3.609375q0 1.859375 -0.5625 2.9375q-0.5625 1.0625 -1.640625 1.65625q-1.0625 0.59375 -2.328125 0.59375q-2.03125 0 -3.28125 -1.296875q-1.25 -1.3125 -1.25 -3.765625zm1.6875 0q0 1.859375 0.796875 2.796875q0.8125 0.921875 2.046875 0.921875q1.21875 0 2.03125 -0.921875q0.8125 -0.9375 0.8125 -2.84375q0 -1.796875 -0.8125 -2.71875q-0.8125 -0.921875 -2.03125 -0.921875q-1.234375 0 -2.046875 0.921875q-0.796875 0.90625 -0.796875 2.765625zm9.250702 4.84375l0 -13.359375l1.640625 0l0 13.359375l-1.640625 0zm4.1917114 -11.46875l0 -1.890625l1.640625 0l0 1.890625l-1.640625 0zm0 11.46875l0 -9.671875l1.640625 0l0 9.671875l-1.640625 0zm10.457306 -3.546875l1.609375 0.21875q-0.265625 1.65625 -1.359375 2.609375q-1.078125 0.9375 -2.671875 0.9375q-1.984375 0 -3.1875 -1.296875q-1.203125 -1.296875 -1.203125 -3.71875q0 -1.578125 0.515625 -2.75q0.515625 -1.171875 1.578125 -1.75q1.0625 -0.59375 2.3125 -0.59375q1.578125 0 2.578125 0.796875q1.0 0.796875 1.28125 2.265625l-1.59375 0.234375q-0.234375 -0.96875 -0.8125 -1.453125q-0.578125 -0.5 -1.390625 -0.5q-1.234375 0 -2.015625 0.890625q-0.78125 0.890625 -0.78125 2.8125q0 1.953125 0.75 2.84375q0.75 0.875 1.953125 0.875q0.96875 0 1.609375 -0.59375q0.65625 -0.59375 0.828125 -1.828125zm2.9375 7.265625l-0.1875 -1.53125q0.546875 0.140625 0.9375 0.140625q0.546875 0 0.875 -0.1875q0.328125 -0.171875 0.546875 -0.5q0.15625 -0.25 0.5 -1.21875q0.046875 -0.140625 0.140625 -0.40625l-3.671875 -9.6875l1.765625 0l2.015625 5.59375q0.390625 1.078125 0.703125 2.25q0.28125 -1.125 0.671875 -2.203125l2.078125 -5.640625l1.640625 0l-3.6875 9.828125q-0.59375 1.609375 -0.921875 2.203125q-0.4375 0.8125 -1.0 1.1875q-0.5625 0.375 -1.34375 0.375q-0.484375 0 -1.0625 -0.203125z" fill-rule="nonzero"/><path fill="#000000" d="m270.34274 61.674015l1.984375 -9.546875l2.875 0q1.046875 0 1.59375 0.15625q0.78125 0.203125 1.328125 0.71875q0.546875 0.515625 0.828125 1.296875q0.28125 0.765625 0.28125 1.734375q0 1.15625 -0.34375 2.109375q-0.34375 0.9375 -0.90625 1.65625q-0.5625 0.71875 -1.1875 1.125q-0.609375 0.40625 -1.453125 0.59375q-0.640625 0.15625 -1.5625 0.15625l-3.4375 0zm1.5 -1.078125l1.515625 0q1.015625 0 1.8125 -0.1875q0.5 -0.125 0.84375 -0.34375q0.46875 -0.296875 0.84375 -0.78125q0.484375 -0.640625 0.78125 -1.453125q0.296875 -0.8125 0.296875 -1.859375q0 -1.15625 -0.40625 -1.78125q-0.390625 -0.625 -1.015625 -0.8125q-0.46875 -0.15625 -1.4375 -0.15625l-1.6875 0l-1.546875 7.375zm12.640778 0.21875q-0.625 0.53125 -1.1875 0.78125q-0.5625 0.234375 -1.203125 0.234375q-0.96875 0 -1.5625 -0.5625q-0.578125 -0.5625 -0.578125 -1.4375q0 -0.578125 0.265625 -1.015625q0.265625 -0.453125 0.703125 -0.71875q0.4375 -0.28125 1.0625 -0.390625q0.40625 -0.078125 1.515625 -0.125q1.109375 -0.046875 1.59375 -0.234375q0.125 -0.484375 0.125 -0.8125q0 -0.40625 -0.296875 -0.640625q-0.40625 -0.328125 -1.1875 -0.328125q-0.75 0 -1.21875 0.328125q-0.46875 0.328125 -0.6875 0.9375l-1.1875 -0.109375q0.359375 -1.015625 1.140625 -1.5625q0.796875 -0.546875 2.0 -0.546875q1.28125 0 2.03125 0.609375q0.578125 0.453125 0.578125 1.1875q0 0.546875 -0.15625 1.28125l-0.390625 1.71875q-0.1875 0.8125 -0.1875 1.328125q0 0.328125 0.15625 0.9375l-1.203125 0q-0.09375 -0.34375 -0.125 -0.859375zm0.421875 -2.640625q-0.234375 0.09375 -0.53125 0.15625q-0.28125 0.046875 -0.9375 0.109375q-1.03125 0.078125 -1.453125 0.21875q-0.421875 0.140625 -0.640625 0.453125q-0.21875 0.296875 -0.21875 0.671875q0 0.5 0.34375 0.828125q0.34375 0.3125 0.984375 0.3125q0.578125 0 1.109375 -0.3125q0.546875 -0.3125 0.859375 -0.859375q0.3125 -0.5625 0.484375 -1.578125zm5.0843506 2.546875l-0.203125 0.953125q-0.421875 0.109375 -0.8125 0.109375q-0.703125 0 -1.125 -0.34375q-0.3125 -0.25 -0.3125 -0.703125q0 -0.234375 0.171875 -1.046875l0.828125 -4.015625l-0.921875 0l0.1875 -0.90625l0.9375 0l0.34375 -1.703125l1.359375 -0.8125l-0.53125 2.515625l1.15625 0l-0.1875 0.90625l-1.15625 0l-0.796875 3.8125q-0.15625 0.734375 -0.15625 0.875q0 0.21875 0.109375 0.328125q0.125 0.109375 0.40625 0.109375q0.390625 0 0.703125 -0.078125zm5.6092224 0.09375q-0.625 0.53125 -1.1875 0.78125q-0.5625 0.234375 -1.203125 0.234375q-0.96875 0 -1.5625 -0.5625q-0.578125 -0.5625 -0.578125 -1.4375q0 -0.578125 0.265625 -1.015625q0.265625 -0.453125 0.703125 -0.71875q0.4375 -0.28125 1.0625 -0.390625q0.40625 -0.078125 1.515625 -0.125q1.109375 -0.046875 1.59375 -0.234375q0.125 -0.484375 0.125 -0.8125q0 -0.40625 -0.296875 -0.640625q-0.40625 -0.328125 -1.1875 -0.328125q-0.75 0 -1.21875 0.328125q-0.46875 0.328125 -0.6875 0.9375l-1.1875 -0.109375q0.359375 -1.015625 1.140625 -1.5625q0.796875 -0.546875 2.0 -0.546875q1.28125 0 2.03125 0.609375q0.578125 0.453125 0.578125 1.1875q0 0.546875 -0.15625 1.28125l-0.390625 1.71875q-0.1875 0.8125 -0.1875 1.328125q0 0.328125 0.15625 0.9375l-1.203125 0q-0.09375 -0.34375 -0.125 -0.859375zm0.421875 -2.640625q-0.234375 0.09375 -0.53125 0.15625q-0.28125 0.046875 -0.9375 0.109375q-1.03125 0.078125 -1.453125 0.21875q-0.421875 0.140625 -0.640625 0.453125q-0.21875 0.296875 -0.21875 0.671875q0 0.5 0.34375 0.828125q0.34375 0.3125 0.984375 0.3125q0.578125 0 1.109375 -0.3125q0.546875 -0.3125 0.859375 -0.859375q0.3125 -0.5625 0.484375 -1.578125zm6.1623535 3.5l2.0 -9.546875l1.5625 0l0.96875 6.1875q0.1875 1.21875 0.25 2.34375q0.390625 -0.96875 1.328125 -2.609375l3.34375 -5.921875l1.59375 0l-2.0 9.546875l-1.25 0l1.0 -4.640625q0.34375 -1.609375 0.984375 -3.609375q-0.40625 0.9375 -1.015625 2.015625l-3.546875 6.234375l-1.234375 0l-0.953125 -6.125q-0.140625 -0.828125 -0.1875 -1.953125q-0.171875 1.265625 -0.328125 2.0l-1.265625 6.078125l-1.25 0zm11.180542 -2.625q0 -2.015625 1.1875 -3.34375q0.984375 -1.09375 2.578125 -1.09375q1.25 0 2.015625 0.78125q0.765625 0.78125 0.765625 2.109375q0 1.1875 -0.484375 2.21875q-0.484375 1.015625 -1.375 1.5625q-0.890625 0.546875 -1.875 0.546875q-0.796875 0 -1.46875 -0.34375q-0.65625 -0.34375 -1.0 -0.96875q-0.34375 -0.640625 -0.34375 -1.46875zm1.171875 -0.109375q0 0.96875 0.46875 1.484375q0.46875 0.5 1.1875 0.5q0.375 0 0.75 -0.15625q0.375 -0.15625 0.6875 -0.46875q0.328125 -0.3125 0.546875 -0.703125q0.21875 -0.40625 0.359375 -0.875q0.203125 -0.640625 0.203125 -1.234375q0 -0.9375 -0.46875 -1.453125q-0.46875 -0.515625 -1.1875 -0.515625q-0.5625 0 -1.015625 0.265625q-0.453125 0.265625 -0.828125 0.78125q-0.359375 0.5 -0.53125 1.171875q-0.171875 0.671875 -0.171875 1.203125zm10.693726 1.734375q-1.015625 1.15625 -2.109375 1.15625q-0.984375 0 -1.640625 -0.71875q-0.65625 -0.734375 -0.65625 -2.109375q0 -1.265625 0.515625 -2.3125q0.515625 -1.046875 1.296875 -1.5625q0.78125 -0.515625 1.5625 -0.515625q1.28125 0 1.9375 1.234375l0.78125 -3.71875l1.171875 0l-1.984375 9.546875l-1.09375 0l0.21875 -1.0zm-3.234375 -1.890625q0 0.71875 0.140625 1.140625q0.140625 0.40625 0.484375 0.6875q0.34375 0.28125 0.828125 0.28125q0.796875 0 1.453125 -0.84375q0.875 -1.109375 0.875 -2.734375q0 -0.8125 -0.4375 -1.265625q-0.421875 -0.46875 -1.078125 -0.46875q-0.421875 0 -0.765625 0.1875q-0.34375 0.1875 -0.6875 0.640625q-0.34375 0.453125 -0.578125 1.15625q-0.234375 0.6875 -0.234375 1.21875zm11.053101 0.546875l1.15625 0.109375q-0.25 0.859375 -1.140625 1.625q-0.890625 0.765625 -2.125 0.765625q-0.765625 0 -1.40625 -0.34375q-0.640625 -0.359375 -0.984375 -1.03125q-0.328125 -0.6875 -0.328125 -1.546875q0 -1.140625 0.515625 -2.203125q0.53125 -1.0625 1.359375 -1.578125q0.84375 -0.515625 1.8125 -0.515625q1.234375 0 1.96875 0.765625q0.75 0.765625 0.75 2.09375q0 0.5 -0.09375 1.046875l-5.09375 0q-0.03125 0.1875 -0.03125 0.359375q0 0.96875 0.4375 1.484375q0.453125 0.5 1.109375 0.5q0.59375 0 1.171875 -0.390625q0.59375 -0.390625 0.921875 -1.140625zm-3.421875 -1.71875l3.875 0q0.015625 -0.1875 0.015625 -0.265625q0 -0.875 -0.453125 -1.34375q-0.4375 -0.484375 -1.125 -0.484375q-0.765625 0 -1.390625 0.53125q-0.609375 0.515625 -0.921875 1.5625zm5.6624756 4.0625l2.0 -9.546875l1.171875 0l-1.984375 9.546875l-1.1875 0zm11.429718 -0.859375q-0.625 0.53125 -1.1875 0.78125q-0.5625 0.234375 -1.203125 0.234375q-0.96875 0 -1.5625 -0.5625q-0.578125 -0.5625 -0.578125 -1.4375q0 -0.578125 0.265625 -1.015625q0.265625 -0.453125 0.703125 -0.71875q0.4375 -0.28125 1.0625 -0.390625q0.40625 -0.078125 1.515625 -0.125q1.109375 -0.046875 1.59375 -0.234375q0.125 -0.484375 0.125 -0.8125q0 -0.40625 -0.296875 -0.640625q-0.40625 -0.328125 -1.1875 -0.328125q-0.75 0 -1.21875 0.328125q-0.46875 0.328125 -0.6875 0.9375l-1.1875 -0.109375q0.359375 -1.015625 1.140625 -1.5625q0.796875 -0.546875 2.0 -0.546875q1.28125 0 2.03125 0.609375q0.578125 0.453125 0.578125 1.1875q0 0.546875 -0.15625 1.28125l-0.390625 1.71875q-0.1875 0.8125 -0.1875 1.328125q0 0.328125 0.15625 0.9375l-1.203125 0q-0.09375 -0.34375 -0.125 -0.859375zm0.421875 -2.640625q-0.234375 0.09375 -0.53125 0.15625q-0.28125 0.046875 -0.9375 0.109375q-1.03125 0.078125 -1.453125 0.21875q-0.421875 0.140625 -0.640625 0.453125q-0.21875 0.296875 -0.21875 0.671875q0 0.5 0.34375 0.828125q0.34375 0.3125 0.984375 0.3125q0.578125 0 1.109375 -0.3125q0.546875 -0.3125 0.859375 -0.859375q0.3125 -0.5625 0.484375 -1.578125zm2.3187256 3.5l1.453125 -6.90625l1.0625 0l-0.25 1.203125q0.6875 -0.71875 1.296875 -1.03125q0.609375 -0.328125 1.234375 -0.328125q0.84375 0 1.3125 0.453125q0.484375 0.453125 0.484375 1.21875q0 0.375 -0.171875 1.203125l-0.875 4.1875l-1.171875 0l0.921875 -4.375q0.125 -0.640625 0.125 -0.953125q0 -0.34375 -0.234375 -0.546875q-0.234375 -0.21875 -0.6875 -0.21875q-0.90625 0 -1.609375 0.65625q-0.703125 0.640625 -1.03125 2.21875l-0.671875 3.21875l-1.1875 0zm12.084351 -1.0q-1.015625 1.15625 -2.109375 1.15625q-0.984375 0 -1.640625 -0.71875q-0.65625 -0.734375 -0.65625 -2.109375q0 -1.265625 0.515625 -2.3125q0.515625 -1.046875 1.296875 -1.5625q0.78125 -0.515625 1.5625 -0.515625q1.28125 0 1.9375 1.234375l0.78125 -3.71875l1.171875 0l-1.984375 9.546875l-1.09375 0l0.21875 -1.0zm-3.234375 -1.890625q0 0.71875 0.140625 1.140625q0.140625 0.40625 0.484375 0.6875q0.34375 0.28125 0.828125 0.28125q0.796875 0 1.453125 -0.84375q0.875 -1.109375 0.875 -2.734375q0 -0.8125 -0.4375 -1.265625q-0.421875 -0.46875 -1.078125 -0.46875q-0.421875 0 -0.765625 0.1875q-0.34375 0.1875 -0.6875 0.640625q-0.34375 0.453125 -0.578125 1.15625q-0.234375 0.6875 -0.234375 1.21875zm9.834198 2.890625l2.0 -9.546875l6.890625 0l-0.234375 1.09375l-5.609375 0l-0.625 2.96875l5.46875 0l-0.21875 1.078125l-5.46875 0l-0.6875 3.328125l6.0 0l-0.234375 1.078125l-7.28125 0zm8.2803955 0l3.0 -3.5l-1.71875 -3.40625l1.296875 0l0.59375 1.21875q0.3125 0.703125 0.578125 1.328125l2.0 -2.546875l1.4375 0l-2.90625 3.484375l1.734375 3.421875l-1.296875 0l-0.6875 -1.40625q-0.21875 -0.453125 -0.5 -1.109375l-2.0625 2.515625l-1.46875 0zm11.8984375 -2.515625l1.171875 0.125q-0.4375 1.296875 -1.265625 1.921875q-0.8125 0.625 -1.84375 0.625q-1.140625 0 -1.84375 -0.71875q-0.6875 -0.734375 -0.6875 -2.046875q0 -1.125 0.4375 -2.21875q0.453125 -1.09375 1.28125 -1.65625q0.84375 -0.578125 1.921875 -0.578125q1.109375 0 1.765625 0.625q0.65625 0.625 0.65625 1.65625l-1.15625 0.078125q-0.015625 -0.65625 -0.390625 -1.015625q-0.375 -0.375 -0.984375 -0.375q-0.703125 0 -1.234375 0.453125q-0.515625 0.4375 -0.8125 1.359375q-0.296875 0.90625 -0.296875 1.75q0 0.890625 0.390625 1.34375q0.390625 0.4375 0.96875 0.4375q0.5625 0 1.078125 -0.4375q0.53125 -0.4375 0.84375 -1.328125zm1.8828125 2.515625l2.0 -9.546875l1.171875 0l-0.765625 3.671875q0.65625 -0.640625 1.21875 -0.90625q0.578125 -0.28125 1.171875 -0.28125q0.859375 0 1.328125 0.453125q0.484375 0.453125 0.484375 1.1875q0 0.359375 -0.203125 1.34375l-0.859375 4.078125l-1.171875 0l0.875 -4.1875q0.1875 -0.90625 0.1875 -1.140625q0 -0.34375 -0.234375 -0.546875q-0.234375 -0.21875 -0.671875 -0.21875q-0.640625 0 -1.21875 0.34375q-0.578125 0.328125 -0.90625 0.90625q-0.328125 0.578125 -0.609375 1.875l-0.609375 2.96875l-1.1875 0zm12.084351 -0.859375q-0.625 0.53125 -1.1875 0.78125q-0.5625 0.234375 -1.203125 0.234375q-0.96875 0 -1.5625 -0.5625q-0.578125 -0.5625 -0.578125 -1.4375q0 -0.578125 0.265625 -1.015625q0.265625 -0.453125 0.703125 -0.71875q0.4375 -0.28125 1.0625 -0.390625q0.40625 -0.078125 1.515625 -0.125q1.109375 -0.046875 1.59375 -0.234375q0.125 -0.484375 0.125 -0.8125q0 -0.40625 -0.296875 -0.640625q-0.40625 -0.328125 -1.1875 -0.328125q-0.75 0 -1.21875 0.328125q-0.46875 0.328125 -0.6875 0.9375l-1.1875 -0.109375q0.359375 -1.015625 1.140625 -1.5625q0.796875 -0.546875 2.0 -0.546875q1.28125 0 2.03125 0.609375q0.578125 0.453125 0.578125 1.1875q0 0.546875 -0.15625 1.28125l-0.390625 1.71875q-0.1875 0.8125 -0.1875 1.328125q0 0.328125 0.15625 0.9375l-1.203125 0q-0.09375 -0.34375 -0.125 -0.859375zm0.421875 -2.640625q-0.234375 0.09375 -0.53125 0.15625q-0.28125 0.046875 -0.9375 0.109375q-1.03125 0.078125 -1.453125 0.21875q-0.421875 0.140625 -0.640625 0.453125q-0.21875 0.296875 -0.21875 0.671875q0 0.5 0.34375 0.828125q0.34375 0.3125 0.984375 0.3125q0.578125 0 1.109375 -0.3125q0.546875 -0.3125 0.859375 -0.859375q0.3125 -0.5625 0.484375 -1.578125zm2.3187256 3.5l1.453125 -6.90625l1.0625 0l-0.25 1.203125q0.6875 -0.71875 1.296875 -1.03125q0.609375 -0.328125 1.234375 -0.328125q0.84375 0 1.3125 0.453125q0.484375 0.453125 0.484375 1.21875q0 0.375 -0.171875 1.203125l-0.875 4.1875l-1.171875 0l0.921875 -4.375q0.125 -0.640625 0.125 -0.953125q0 -0.34375 -0.234375 -0.546875q-0.234375 -0.21875 -0.6875 -0.21875q-0.90625 0 -1.609375 0.65625q-0.703125 0.640625 -1.03125 2.21875l-0.671875 3.21875l-1.1875 0zm7.3499756 0.625l1.1875 0.109375q0 0.40625 0.109375 0.609375q0.109375 0.203125 0.34375 0.3125q0.328125 0.140625 0.828125 0.140625q1.0625 0 1.53125 -0.546875q0.3125 -0.375 0.578125 -1.625l0.109375 -0.5625q-0.921875 0.9375 -1.953125 0.9375q-1.046875 0 -1.75 -0.765625q-0.703125 -0.78125 -0.703125 -2.1875q0 -1.171875 0.546875 -2.140625q0.5625 -0.984375 1.328125 -1.46875q0.765625 -0.5 1.578125 -0.5q1.359375 0 2.09375 1.28125l0.234375 -1.125l1.078125 0l-1.390625 6.671875q-0.21875 1.09375 -0.59375 1.703125q-0.375 0.625 -1.03125 0.9531212q-0.65625 0.34375 -1.53125 0.34375q-0.828125 0 -1.4375 -0.21875q-0.59375 -0.203125 -0.890625 -0.6249962q-0.296875 -0.40625 -0.296875 -0.953125q0 -0.15625 0.03125 -0.34375zm1.46875 -3.6875q0 0.71875 0.140625 1.078125q0.203125 0.5 0.5625 0.765625q0.359375 0.25 0.796875 0.25q0.578125 0 1.140625 -0.40625q0.578125 -0.40625 0.9375 -1.25q0.359375 -0.859375 0.359375 -1.625q0 -0.859375 -0.484375 -1.359375q-0.46875 -0.515625 -1.15625 -0.515625q-0.4375 0 -0.84375 0.234375q-0.390625 0.234375 -0.75 0.703125q-0.34375 0.46875 -0.53125 1.140625q-0.171875 0.65625 -0.171875 0.984375zm11.084351 0.71875l1.15625 0.109375q-0.25 0.859375 -1.140625 1.625q-0.890625 0.765625 -2.125 0.765625q-0.765625 0 -1.40625 -0.34375q-0.640625 -0.359375 -0.984375 -1.03125q-0.328125 -0.6875 -0.328125 -1.546875q0 -1.140625 0.515625 -2.203125q0.53125 -1.0625 1.359375 -1.578125q0.84375 -0.515625 1.8125 -0.515625q1.234375 0 1.96875 0.765625q0.75 0.765625 0.75 2.09375q0 0.5 -0.09375 1.046875l-5.09375 0q-0.03125 0.1875 -0.03125 0.359375q0 0.96875 0.4375 1.484375q0.453125 0.5 1.109375 0.5q0.59375 0 1.171875 -0.390625q0.59375 -0.390625 0.921875 -1.140625zm-3.421875 -1.71875l3.875 0q0.015625 -0.1875 0.015625 -0.265625q0 -0.875 -0.453125 -1.34375q-0.4375 -0.484375 -1.125 -0.484375q-0.765625 0 -1.390625 0.53125q-0.609375 0.515625 -0.921875 1.5625zm9.631073 4.0625l1.984375 -9.546875l6.203125 0l-0.21875 1.09375l-4.9375 0l-0.625 3.03125l5.015625 0l-0.234375 1.09375l-5.015625 0l-0.90625 4.328125l-1.265625 0zm8.188232 -2.625q0 -2.015625 1.1875 -3.34375q0.984375 -1.09375 2.578125 -1.09375q1.25 0 2.015625 0.78125q0.765625 0.78125 0.765625 2.109375q0 1.1875 -0.484375 2.21875q-0.484375 1.015625 -1.375 1.5625q-0.890625 0.546875 -1.875 0.546875q-0.796875 0 -1.46875 -0.34375q-0.65625 -0.34375 -1.0 -0.96875q-0.34375 -0.640625 -0.34375 -1.46875zm1.171875 -0.109375q0 0.96875 0.46875 1.484375q0.46875 0.5 1.1875 0.5q0.375 0 0.75 -0.15625q0.375 -0.15625 0.6875 -0.46875q0.328125 -0.3125 0.546875 -0.703125q0.21875 -0.40625 0.359375 -0.875q0.203125 -0.640625 0.203125 -1.234375q0 -0.9375 -0.46875 -1.453125q-0.46875 -0.515625 -1.1875 -0.515625q-0.5625 0 -1.015625 0.265625q-0.453125 0.265625 -0.828125 0.78125q-0.359375 0.5 -0.53125 1.171875q-0.171875 0.671875 -0.171875 1.203125zm6.0218506 2.734375l1.453125 -6.90625l1.03125 0l-0.28125 1.40625q0.53125 -0.796875 1.03125 -1.171875q0.515625 -0.390625 1.046875 -0.390625q0.359375 0 0.875 0.25l-0.484375 1.09375q-0.3125 -0.21875 -0.671875 -0.21875q-0.625 0 -1.28125 0.6875q-0.640625 0.6875 -1.015625 2.484375l-0.578125 2.765625l-1.125 0zm4.438385 0l1.4375 -6.90625l1.1875 0l-0.25 1.140625q0.65625 -0.75 1.171875 -1.015625q0.53125 -0.28125 1.125 -0.28125q0.65625 0 1.078125 0.34375q0.4375 0.328125 0.578125 0.953125q0.515625 -0.65625 1.09375 -0.96875q0.59375 -0.328125 1.234375 -0.328125q0.875 0 1.296875 0.40625q0.4375 0.40625 0.4375 1.15625q0 0.3125 -0.15625 1.046875l-0.921875 4.453125l-1.171875 0l0.9375 -4.5625q0.125 -0.5625 0.125 -0.8125q0 -0.328125 -0.21875 -0.515625q-0.203125 -0.203125 -0.59375 -0.203125q-0.53125 0 -1.078125 0.328125q-0.546875 0.3125 -0.859375 0.828125q-0.296875 0.515625 -0.515625 1.59375l-0.703125 3.34375l-1.1875 0l0.984375 -4.671875q0.109375 -0.46875 0.109375 -0.671875q0 -0.34375 -0.21875 -0.546875q-0.21875 -0.203125 -0.546875 -0.203125q-0.5 0 -1.0625 0.328125q-0.546875 0.3125 -0.890625 0.875q-0.34375 0.5625 -0.5625 1.625l-0.6875 3.265625l-1.171875 0zm15.774292 -0.859375q-0.625 0.53125 -1.1875 0.78125q-0.5625 0.234375 -1.203125 0.234375q-0.96875 0 -1.5625 -0.5625q-0.578125 -0.5625 -0.578125 -1.4375q0 -0.578125 0.265625 -1.015625q0.265625 -0.453125 0.703125 -0.71875q0.4375 -0.28125 1.0625 -0.390625q0.40625 -0.078125 1.515625 -0.125q1.109375 -0.046875 1.59375 -0.234375q0.125 -0.484375 0.125 -0.8125q0 -0.40625 -0.296875 -0.640625q-0.40625 -0.328125 -1.1875 -0.328125q-0.75 0 -1.21875 0.328125q-0.46875 0.328125 -0.6875 0.9375l-1.1875 -0.109375q0.359375 -1.015625 1.140625 -1.5625q0.796875 -0.546875 2.0 -0.546875q1.28125 0 2.03125 0.609375q0.578125 0.453125 0.578125 1.1875q0 0.546875 -0.15625 1.28125l-0.390625 1.71875q-0.1875 0.8125 -0.1875 1.328125q0 0.328125 0.15625 0.9375l-1.203125 0q-0.09375 -0.34375 -0.125 -0.859375zm0.421875 -2.640625q-0.234375 0.09375 -0.53125 0.15625q-0.28125 0.046875 -0.9375 0.109375q-1.03125 0.078125 -1.453125 0.21875q-0.421875 0.140625 -0.640625 0.453125q-0.21875 0.296875 -0.21875 0.671875q0 0.5 0.34375 0.828125q0.34375 0.3125 0.984375 0.3125q0.578125 0 1.109375 -0.3125q0.546875 -0.3125 0.859375 -0.859375q0.3125 -0.5625 0.484375 -1.578125zm5.0843506 2.546875l-0.203125 0.953125q-0.421875 0.109375 -0.8125 0.109375q-0.703125 0 -1.125 -0.34375q-0.3125 -0.25 -0.3125 -0.703125q0 -0.234375 0.171875 -1.046875l0.828125 -4.015625l-0.921875 0l0.1875 -0.90625l0.9375 0l0.34375 -1.703125l1.359375 -0.8125l-0.53125 2.515625l1.15625 0l-0.1875 0.90625l-1.15625 0l-0.796875 3.8125q-0.15625 0.734375 -0.15625 0.875q0 0.21875 0.109375 0.328125q0.125 0.109375 0.40625 0.109375q0.390625 0 0.703125 -0.078125z" fill-rule="nonzero"/><path fill="#cfe2f3" d="m508.9652 12.675853l230.39374 0l0 66.39371l-230.39374 0z" fill-rule="evenodd"/><path stroke="#000000" stroke-width="1.0" stroke-linejoin="round" stroke-linecap="butt" d="m508.9652 12.675853l230.39374 0l0 66.39371l-230.39374 0z" fill-rule="evenodd"/><path fill="#000000" d="m518.80896 39.495827l1.65625 -0.140625q0.125 1.0 0.546875 1.640625q0.4375 0.640625 1.34375 1.046875q0.921875 0.390625 2.0625 0.390625q1.0 0 1.78125 -0.296875q0.78125 -0.296875 1.15625 -0.8125q0.375 -0.53125 0.375 -1.15625q0 -0.625 -0.375 -1.09375q-0.359375 -0.46875 -1.1875 -0.796875q-0.546875 -0.203125 -2.390625 -0.640625q-1.828125 -0.453125 -2.5625 -0.84375q-0.96875 -0.5 -1.4375 -1.234375q-0.46875 -0.75 -0.46875 -1.671875q0 -1.0 0.578125 -1.875q0.578125 -0.890625 1.671875 -1.34375q1.109375 -0.453125 2.453125 -0.453125q1.484375 0 2.609375 0.484375q1.140625 0.46875 1.75 1.40625q0.609375 0.921875 0.65625 2.09375l-1.6875 0.125q-0.140625 -1.265625 -0.9375 -1.90625q-0.78125 -0.65625 -2.3125 -0.65625q-1.609375 0 -2.34375 0.59375q-0.734375 0.59375 -0.734375 1.421875q0 0.71875 0.53125 1.171875q0.5 0.46875 2.65625 0.96875q2.15625 0.484375 2.953125 0.84375q1.171875 0.53125 1.71875 1.359375q0.5625 0.828125 0.5625 1.90625q0 1.0625 -0.609375 2.015625q-0.609375 0.9375 -1.75 1.46875q-1.140625 0.515625 -2.578125 0.515625q-1.8125 0 -3.046875 -0.53125q-1.21875 -0.53125 -1.921875 -1.59375q-0.6875 -1.0625 -0.71875 -2.40625zm22.568604 -0.390625l1.765625 0.453125q-0.5625 2.171875 -2.0 3.328125q-1.4375 1.140625 -3.53125 1.140625q-2.15625 0 -3.515625 -0.875q-1.34375 -0.890625 -2.0625 -2.546875q-0.703125 -1.671875 -0.703125 -3.59375q0 -2.078125 0.796875 -3.625q0.796875 -1.5625 2.265625 -2.359375q1.484375 -0.8125 3.25 -0.8125q2.0 0 3.359375 1.015625q1.375 1.015625 1.90625 2.875l-1.734375 0.40625q-0.46875 -1.453125 -1.359375 -2.109375q-0.875 -0.671875 -2.203125 -0.671875q-1.546875 0 -2.578125 0.734375q-1.03125 0.734375 -1.453125 1.984375q-0.421875 1.234375 -0.421875 2.5625q0 1.703125 0.5 2.96875q0.5 1.265625 1.546875 1.90625q1.046875 0.625 2.265625 0.625q1.484375 0 2.515625 -0.859375q1.03125 -0.859375 1.390625 -2.546875zm4.2385254 4.6875l0 -13.359375l1.765625 0l0 13.359375l-1.765625 0zm4.8395996 0l0 -13.359375l2.65625 0l3.15625 9.453125q0.4375 1.328125 0.640625 1.984375q0.234375 -0.734375 0.703125 -2.140625l3.203125 -9.296875l2.375 0l0 13.359375l-1.703125 0l0 -11.171875l-3.875 11.171875l-1.59375 0l-3.859375 -11.375l0 11.375l-1.703125 0zm14.7438965 -4.015625l0 -1.640625l5.03125 0l0 1.640625l-5.03125 0zm6.4627075 -0.28125l1.65625 -0.140625q0.125 1.0 0.546875 1.640625q0.4375 0.640625 1.34375 1.046875q0.921875 0.390625 2.0625 0.390625q1.0 0 1.78125 -0.296875q0.78125 -0.296875 1.15625 -0.8125q0.375 -0.53125 0.375 -1.15625q0 -0.625 -0.375 -1.09375q-0.359375 -0.46875 -1.1875 -0.796875q-0.546875 -0.203125 -2.390625 -0.640625q-1.828125 -0.453125 -2.5625 -0.84375q-0.96875 -0.5 -1.4375 -1.234375q-0.46875 -0.75 -0.46875 -1.671875q0 -1.0 0.578125 -1.875q0.578125 -0.890625 1.671875 -1.34375q1.109375 -0.453125 2.453125 -0.453125q1.484375 0 2.609375 0.484375q1.140625 0.46875 1.75 1.40625q0.609375 0.921875 0.65625 2.09375l-1.6875 0.125q-0.140625 -1.265625 -0.9375 -1.90625q-0.78125 -0.65625 -2.3125 -0.65625q-1.609375 0 -2.34375 0.59375q-0.734375 0.59375 -0.734375 1.421875q0 0.71875 0.53125 1.171875q0.5 0.46875 2.65625 0.96875q2.15625 0.484375 2.953125 0.84375q1.171875 0.53125 1.71875 1.359375q0.5625 0.828125 0.5625 1.90625q0 1.0625 -0.609375 2.015625q-0.609375 0.9375 -1.75 1.46875q-1.140625 0.515625 -2.578125 0.515625q-1.8125 0 -3.046875 -0.53125q-1.21875 -0.53125 -1.921875 -1.59375q-0.6875 -1.0625 -0.71875 -2.40625zm16.412292 2.828125l0.234375 1.453125q-0.6875 0.140625 -1.234375 0.140625q-0.890625 0 -1.390625 -0.28125q-0.484375 -0.28125 -0.6875 -0.734375q-0.203125 -0.46875 -0.203125 -1.9375l0 -5.578125l-1.203125 0l0 -1.265625l1.203125 0l0 -2.390625l1.625 -0.984375l0 3.375l1.65625 0l0 1.265625l-1.65625 0l0 5.671875q0 0.6875 0.078125 0.890625q0.09375 0.203125 0.28125 0.328125q0.203125 0.109375 0.578125 0.109375q0.265625 0 0.71875 -0.0625zm0.9957886 -3.375q0 -2.6875 1.484375 -3.96875q1.25 -1.078125 3.046875 -1.078125q2.0 0 3.265625 1.3125q1.265625 1.296875 1.265625 3.609375q0 1.859375 -0.5625 2.9375q-0.5625 1.0625 -1.640625 1.65625q-1.0625 0.59375 -2.328125 0.59375q-2.03125 0 -3.28125 -1.296875q-1.25 -1.3125 -1.25 -3.765625zm1.6875 0q0 1.859375 0.796875 2.796875q0.8125 0.921875 2.046875 0.921875q1.21875 0 2.03125 -0.921875q0.8125 -0.9375 0.8125 -2.84375q0 -1.796875 -0.8125 -2.71875q-0.8125 -0.921875 -2.03125 -0.921875q-1.234375 0 -2.046875 0.921875q-0.796875 0.90625 -0.796875 2.765625zm9.281982 4.84375l0 -9.671875l1.46875 0l0 1.46875q0.5625 -1.03125 1.03125 -1.359375q0.484375 -0.328125 1.0625 -0.328125q0.828125 0 1.6875 0.53125l-0.5625 1.515625q-0.609375 -0.359375 -1.203125 -0.359375q-0.546875 0 -0.96875 0.328125q-0.421875 0.328125 -0.609375 0.890625q-0.28125 0.875 -0.28125 1.921875l0 5.0625l-1.625 0zm12.8533325 -3.109375l1.6875 0.203125q-0.40625 1.484375 -1.484375 2.3125q-1.078125 0.8125 -2.765625 0.8125q-2.125 0 -3.375 -1.296875q-1.234375 -1.3125 -1.234375 -3.671875q0 -2.453125 1.25 -3.796875q1.265625 -1.34375 3.265625 -1.34375q1.9375 0 3.15625 1.328125q1.234375 1.3125 1.234375 3.703125q0 0.15625 0 0.4375l-7.21875 0q0.09375 1.59375 0.90625 2.453125q0.8125 0.84375 2.015625 0.84375q0.90625 0 1.546875 -0.46875q0.640625 -0.484375 1.015625 -1.515625zm-5.390625 -2.65625l5.40625 0q-0.109375 -1.21875 -0.625 -1.828125q-0.78125 -0.953125 -2.03125 -0.953125q-1.125 0 -1.90625 0.765625q-0.765625 0.75 -0.84375 2.015625z" fill-rule="nonzero"/><path fill="#000000" d="m518.62146 58.5777l1.3125 -0.109375q0.09375 0.78125 0.421875 1.296875q0.34375 0.5 1.0625 0.8125q0.71875 0.3125 1.609375 0.3125q0.796875 0 1.40625 -0.234375q0.609375 -0.234375 0.90625 -0.640625q0.296875 -0.421875 0.296875 -0.90625q0 -0.5 -0.296875 -0.859375q-0.28125 -0.375 -0.9375 -0.625q-0.421875 -0.171875 -1.875 -0.515625q-1.4375 -0.34375 -2.015625 -0.65625q-0.75 -0.390625 -1.125 -0.96875q-0.359375 -0.59375 -0.359375 -1.3125q0 -0.796875 0.4375 -1.484375q0.453125 -0.6875 1.3125 -1.046875q0.875 -0.359375 1.9375 -0.359375q1.171875 0 2.0625 0.375q0.890625 0.375 1.359375 1.109375q0.484375 0.734375 0.515625 1.65625l-1.328125 0.09375q-0.109375 -1.0 -0.734375 -1.5q-0.609375 -0.515625 -1.8125 -0.515625q-1.265625 0 -1.84375 0.46875q-0.578125 0.46875 -0.578125 1.109375q0 0.5625 0.421875 0.9375q0.390625 0.359375 2.078125 0.75q1.703125 0.375 2.328125 0.65625q0.921875 0.421875 1.359375 1.078125q0.4375 0.640625 0.4375 1.484375q0 0.84375 -0.484375 1.59375q-0.484375 0.734375 -1.390625 1.140625q-0.890625 0.40625 -2.015625 0.40625q-1.421875 0 -2.390625 -0.40625q-0.953125 -0.421875 -1.5 -1.25q-0.546875 -0.828125 -0.578125 -1.890625zm15.29126 0.921875l1.328125 0.171875q-0.3125 1.171875 -1.171875 1.8125q-0.84375 0.640625 -2.171875 0.640625q-1.671875 0 -2.65625 -1.015625q-0.96875 -1.03125 -0.96875 -2.890625q0 -1.921875 0.984375 -2.96875q1.0 -1.0625 2.578125 -1.0625q1.515625 0 2.484375 1.03125q0.96875 1.03125 0.96875 2.921875q0 0.109375 -0.015625 0.34375l-5.65625 0q0.0625 1.25 0.703125 1.921875q0.640625 0.65625 1.59375 0.65625q0.703125 0 1.203125 -0.359375q0.5 -0.375 0.796875 -1.203125zm-4.234375 -2.078125l4.25 0q-0.09375 -0.953125 -0.484375 -1.4375q-0.625 -0.75 -1.609375 -0.75q-0.875 0 -1.484375 0.59375q-0.609375 0.59375 -0.671875 1.59375zm7.166687 4.53125l0 -7.59375l1.15625 0l0 1.140625q0.453125 -0.796875 0.828125 -1.046875q0.375 -0.265625 0.8125 -0.265625q0.65625 0 1.328125 0.40625l-0.4375 1.203125q-0.46875 -0.28125 -0.953125 -0.28125q-0.421875 0 -0.765625 0.25q-0.328125 0.25 -0.46875 0.703125q-0.21875 0.6875 -0.21875 1.5l0 3.984375l-1.28125 0zm7.0056763 0l-2.890625 -7.59375l1.359375 0l1.625 4.546875q0.265625 0.734375 0.5 1.53125q0.15625 -0.609375 0.46875 -1.453125l1.6875 -4.625l1.328125 0l-2.875 7.59375l-1.203125 0zm5.21875 -9.015625l0 -1.46875l1.296875 0l0 1.46875l-1.296875 0zm0 9.015625l0 -7.59375l1.296875 0l0 7.59375l-1.296875 0zm8.20929 -2.78125l1.265625 0.15625q-0.203125 1.3125 -1.0625 2.0625q-0.84375 0.734375 -2.09375 0.734375q-1.5625 0 -2.515625 -1.015625q-0.9375 -1.03125 -0.9375 -2.921875q0 -1.234375 0.40625 -2.15625q0.40625 -0.921875 1.234375 -1.375q0.84375 -0.46875 1.8125 -0.46875q1.25 0 2.03125 0.625q0.78125 0.625 1.015625 1.765625l-1.265625 0.203125q-0.171875 -0.765625 -0.625 -1.15625q-0.453125 -0.390625 -1.09375 -0.390625q-0.984375 0 -1.59375 0.703125q-0.609375 0.703125 -0.609375 2.203125q0 1.53125 0.578125 2.234375q0.59375 0.6875 1.546875 0.6875q0.75 0 1.265625 -0.453125q0.515625 -0.46875 0.640625 -1.4375zm7.578125 0.328125l1.328125 0.171875q-0.3125 1.171875 -1.171875 1.8125q-0.84375 0.640625 -2.171875 0.640625q-1.671875 0 -2.65625 -1.015625q-0.96875 -1.03125 -0.96875 -2.890625q0 -1.921875 0.984375 -2.96875q1.0 -1.0625 2.578125 -1.0625q1.515625 0 2.484375 1.03125q0.96875 1.03125 0.96875 2.921875q0 0.109375 -0.015625 0.34375l-5.65625 0q0.0625 1.25 0.703125 1.921875q0.640625 0.65625 1.59375 0.65625q0.703125 0 1.203125 -0.359375q0.5 -0.375 0.796875 -1.203125zm-4.234375 -2.078125l4.25 0q-0.09375 -0.953125 -0.484375 -1.4375q-0.625 -0.75 -1.609375 -0.75q-0.875 0 -1.484375 0.59375q-0.609375 0.59375 -0.671875 1.59375zm11.4105835 4.53125l0 -10.484375l3.625 0q1.21875 0 1.859375 0.140625q0.90625 0.203125 1.546875 0.75q0.828125 0.703125 1.234375 1.796875q0.40625 1.09375 0.40625 2.5q0 1.1875 -0.28125 2.109375q-0.265625 0.921875 -0.703125 1.53125q-0.4375 0.609375 -0.96875 0.953125q-0.515625 0.34375 -1.25 0.53125q-0.71875 0.171875 -1.671875 0.171875l-3.796875 0zm1.390625 -1.234375l2.25 0q1.03125 0 1.625 -0.1875q0.59375 -0.203125 0.9375 -0.546875q0.5 -0.5 0.765625 -1.328125q0.28125 -0.84375 0.28125 -2.03125q0 -1.640625 -0.546875 -2.515625q-0.53125 -0.890625 -1.3125 -1.1875q-0.546875 -0.21875 -1.796875 -0.21875l-2.203125 0l0 8.015625zm14.2404785 -1.21875l1.328125 0.171875q-0.3125 1.171875 -1.171875 1.8125q-0.84375 0.640625 -2.171875 0.640625q-1.671875 0 -2.65625 -1.015625q-0.96875 -1.03125 -0.96875 -2.890625q0 -1.921875 0.984375 -2.96875q1.0 -1.0625 2.578125 -1.0625q1.515625 0 2.484375 1.03125q0.96875 1.03125 0.96875 2.921875q0 0.109375 -0.015625 0.34375l-5.65625 0q0.0625 1.25 0.703125 1.921875q0.640625 0.65625 1.59375 0.65625q0.703125 0 1.203125 -0.359375q0.5 -0.375 0.796875 -1.203125zm-4.234375 -2.078125l4.25 0q-0.09375 -0.953125 -0.484375 -1.4375q-0.625 -0.75 -1.609375 -0.75q-0.875 0 -1.484375 0.59375q-0.609375 0.59375 -0.671875 1.59375zm7.494873 4.53125l0 -6.59375l-1.140625 0l0 -1.0l1.140625 0l0 -0.8125q0 -0.765625 0.125 -1.140625q0.1875 -0.5 0.65625 -0.8125q0.46875 -0.3125 1.3125 -0.3125q0.546875 0 1.203125 0.125l-0.1875 1.125q-0.40625 -0.0625 -0.765625 -0.0625q-0.578125 0 -0.828125 0.25q-0.234375 0.25 -0.234375 0.9375l0 0.703125l1.46875 0l0 1.0l-1.46875 0l0 6.59375l-1.28125 0zm3.7594604 -9.015625l0 -1.46875l1.296875 0l0 1.46875l-1.296875 0zm0 9.015625l0 -7.59375l1.296875 0l0 7.59375l-1.296875 0zm3.2561646 0l0 -7.59375l1.15625 0l0 1.078125q0.84375 -1.25 2.421875 -1.25q0.6875 0 1.265625 0.25q0.578125 0.234375 0.859375 0.640625q0.28125 0.40625 0.40625 0.953125q0.0625 0.359375 0.0625 1.25l0 4.671875l-1.28125 0l0 -4.625q0 -0.78125 -0.15625 -1.171875q-0.15625 -0.390625 -0.546875 -0.625q-0.375 -0.234375 -0.890625 -0.234375q-0.8125 0 -1.421875 0.53125q-0.59375 0.515625 -0.59375 1.96875l0 4.15625l-1.28125 0zm8.151123 -9.015625l0 -1.46875l1.296875 0l0 1.46875l-1.296875 0zm0 9.015625l0 -7.59375l1.296875 0l0 7.59375l-1.296875 0zm6.0686646 -1.15625l0.1875 1.140625q-0.546875 0.109375 -0.984375 0.109375q-0.6875 0 -1.078125 -0.21875q-0.390625 -0.21875 -0.546875 -0.578125q-0.15625 -0.359375 -0.15625 -1.515625l0 -4.375l-0.953125 0l0 -1.0l0.953125 0l0 -1.890625l1.28125 -0.765625l0 2.65625l1.296875 0l0 1.0l-1.296875 0l0 4.4375q0 0.546875 0.0625 0.71875q0.078125 0.15625 0.21875 0.25q0.15625 0.078125 0.453125 0.078125q0.203125 0 0.5625 -0.046875zm1.2594604 -7.859375l0 -1.46875l1.296875 0l0 1.46875l-1.296875 0zm0 9.015625l0 -7.59375l1.296875 0l0 7.59375l-1.296875 0zm2.7717896 -3.796875q0 -2.109375 1.171875 -3.125q0.984375 -0.84375 2.390625 -0.84375q1.578125 0 2.5625 1.03125q1.0 1.015625 1.0 2.828125q0 1.46875 -0.4375 2.3125q-0.4375 0.828125 -1.28125 1.296875q-0.84375 0.46875 -1.84375 0.46875q-1.59375 0 -2.578125 -1.015625q-0.984375 -1.03125 -0.984375 -2.953125zm1.328125 0q0 1.453125 0.625 2.1875q0.640625 0.71875 1.609375 0.71875q0.96875 0 1.59375 -0.71875q0.640625 -0.734375 0.640625 -2.234375q0 -1.40625 -0.640625 -2.125q-0.640625 -0.734375 -1.59375 -0.734375q-0.96875 0 -1.609375 0.71875q-0.625 0.71875 -0.625 2.1875zm7.307312 3.796875l0 -7.59375l1.15625 0l0 1.078125q0.84375 -1.25 2.421875 -1.25q0.6875 0 1.265625 0.25q0.578125 0.234375 0.859375 0.640625q0.28125 0.40625 0.40625 0.953125q0.0625 0.359375 0.0625 1.25l0 4.671875l-1.28125 0l0 -4.625q0 -0.78125 -0.15625 -1.171875q-0.15625 -0.390625 -0.546875 -0.625q-0.375 -0.234375 -0.890625 -0.234375q-0.8125 0 -1.421875 0.53125q-0.59375 0.515625 -0.59375 1.96875l0 4.15625l-1.28125 0z" fill-rule="nonzero"/></g></svg>